<?xml version="1.0" encoding="utf-8"?>
<!-- Generator: Adobe Illustrator 23.0.3, SVG Export Plug-In . SVG Version: 6.00 Build 0)  -->
<svg version="1.1" id="Capa_1" xmlns="http://www.w3.org/2000/svg" xmlns:xlink="http://www.w3.org/1999/xlink" x="0px" y="0px"
	 viewBox="0 0 332.5 144.8" style="enable-background:new 0 0 332.5 144.8;" xml:space="preserve">
<style type="text/css">
	.st0{fill:#D0772B;}
	.st1{fill:#00287B;}
</style>
<g>
	<g>
		<path class="st0" d="M165.1,122.9c-74.8,0-138.2,3.8-159.9,9l19.2,10.9c26-8,79.3-13.6,140.7-13.6c61.7,0,115,5.6,141,13.6h0.1
			l21.1-10.4C307.9,127,242.7,122.9,165.1,122.9z"/>
	</g>
	<g>
		<path class="st1" d="M48.5,108.2c-5.3,0-10.3-1-15.3-3.1c-4.8-2.1-9-5-12.6-8.5c-3.4-3.3-6.3-7.6-8.4-12.7C10,78.8,9,73.8,9,68.6
			c0-3,1-5.6,3.2-7.7c2.1-2.1,4.7-3.2,7.6-3.2c3,0,5.6,1.1,7.7,3.2c2.2,2.2,3.3,4.8,3.3,7.6c0,2.5,0.5,4.8,1.5,6.9
			c0.9,2,2.2,3.9,3.8,5.6c1.5,1.5,3.3,2.7,5.5,3.8l0.1,0c2.2,0.9,4.6,1.4,6.8,1.4c2.5,0,4.8-0.5,6.9-1.5c2-0.8,3.8-2.1,5.6-3.7
			c1.6-1.5,2.9-3.4,3.8-5.6c0.9-2.2,1.4-4.6,1.4-6.8V13.2c0-3,1.1-5.6,3.2-7.6c2.2-2.1,4.8-3.2,7.6-3.2c3,0,5.6,1.1,7.7,3.2
			c2.2,2.2,3.3,4.8,3.3,7.6v55.4c0,5.3-1,10.3-3.1,15.4c-2,4.7-4.7,8.8-8.4,12.6c-3.5,3.6-7.7,6.4-12.6,8.5l0,0
			C59.3,107.2,54.1,108.2,48.5,108.2z"/>
		<path class="st1" d="M104.4,108c-1.6,0-3-0.3-4.3-0.9c-1.3-0.6-2.5-1.4-3.5-2.4c-0.9-0.9-1.7-2.2-2.3-3.5l0,0
			c-0.6-1.3-0.9-2.6-0.9-4.2c0-1,0.1-1.8,0.3-2.6l0-0.1l21-83.8c0.7-2.5,2-4.5,3.8-6.1c1.7-1.5,3.9-2.2,6.9-2.2
			c2.2,0,4.2,0.7,6.2,2.1c2,1.4,3.4,3.1,4.2,5.3l18.7,51.2l18.7-51.2c0.9-2.3,2.3-4.1,4.2-5.4c2-1.4,4.1-2.1,6.2-2.1
			c2.7,0,5,0.8,6.9,2.3c1.9,1.8,3.2,3.8,3.8,6.1l21,83.9l0,0.1c0.1,0.4,0.2,0.7,0.2,0.8v1.4c0,1.3-0.2,2.5-0.6,3.6
			c-0.5,1.4-1.2,2.6-2,3.7c-0.8,1.1-1.9,2-3.4,2.7c-1.3,0.7-2.9,1-4.9,1c-2.4,0-4.6-0.8-6.8-2.3c-2.2-1.7-3.5-3.7-4.1-6l-12-48.3
			l-18.1,49.4c-0.8,2.3-2,4.1-3.5,5.3c-1.5,1.3-3.3,1.9-5.6,1.9s-4.1-0.6-5.6-1.9c-1.6-1.3-2.7-3.1-3.5-5.3l-18-49.4l-12.1,48.3
			c-0.7,2.5-2,4.4-4.1,6.1C109.2,107.3,107,108,104.4,108z"/>
		<path class="st1" d="M270.6,107.7c-7.3,0-14.1-1.4-20.5-4.1c-6.3-2.7-12-6.6-16.8-11.4c-4.7-4.6-8.6-10.3-11.4-16.8
			c-2.8-6.5-4.1-13.2-4.1-20.5c0-7.2,1.4-14.1,4.1-20.5c2.7-6.3,6.6-12,11.4-16.8c4.9-4.9,10.4-8.6,16.8-11.4
			c6.5-2.8,13.2-4.1,20.5-4.1c7.2,0,14.1,1.4,20.5,4.1c6.5,2.9,12.2,6.7,16.8,11.4c4.7,4.6,8.6,10.3,11.4,16.8
			c2.9,6.8,4.2,13.5,4.1,20.5c0,7.3-1.4,14.2-4.1,20.6c-2.9,6.5-6.7,12.2-11.4,16.8c-4.6,4.7-10.3,8.6-16.8,11.4
			C284.7,106.3,278,107.7,270.6,107.7z M270.5,23.5c-4.6,0-8.6,0.8-12.3,2.5c-3.8,1.8-7.1,4-9.9,6.8c-2.9,2.9-5.1,6.2-6.7,10
			c-1.6,3.9-2.5,8-2.5,12.2c0,4.3,0.8,8.4,2.5,12.2c1.6,3.7,3.9,7.1,6.7,10c2.9,2.9,6.2,5.1,10,6.7c4,1.7,8,2.5,12.2,2.5
			c4.3,0,8.3-0.8,12.3-2.5c3.8-1.6,7.1-3.8,10.1-6.8c2.8-2.7,5.1-6,6.7-10c1.6-3.9,2.5-8,2.5-12.2c0-4.3-0.8-8.4-2.5-12.2
			c-1.6-3.7-3.9-7.1-6.7-10c-2.9-2.9-6.2-5.1-10-6.8l0,0C278.9,24.3,274.8,23.5,270.5,23.5z"/>
	</g>
</g>
</svg>
